HIERARCHY
ROOT Hips
{
	OFFSET 0.000000 0.000000 0.000000
	CHANNELS 6 Xposition Yposition Zposition Zrotation Yrotation Xrotation 
	JOINT LHipJoint
	{
		OFFSET 0.000000 0.000000 0.000000
		CHANNELS 3 Zrotation Yrotation Xrotation
		JOINT LeftUpLeg
		{
			OFFSET 1.363060 -1.794630 0.839290
			CHANNELS 3 Zrotation Yrotation Xrotation
			JOINT LeftLeg
			{
				OFFSET 2.448110 -6.726130 0.000000
				CHANNELS 3 Zrotation Yrotation Xrotation
				JOINT LeftFoot
				{
					OFFSET 2.562200 -7.039590 0.000000
					CHANNELS 3 Zrotation Yrotation Xrotation
					JOINT LeftToeBase
					{
						OFFSET 0.157640 -0.433110 2.322550
						CHANNELS 3 Zrotation Yrotation Xrotation
						End Site
						{
							OFFSET 0.000000 0.000000 0.000000
						}
					}
				}
			}
		}
	}
	JOINT RHipJoint
	{
		OFFSET 0.000000 0.000000 0.000000
		CHANNELS 3 Zrotation Yrotation Xrotation
		JOINT RightUpLeg
		{
			OFFSET -1.305520 -1.794630 0.839290
			CHANNELS 3 Zrotation Yrotation Xrotation
			JOINT RightLeg
			{
				OFFSET -2.542530 -6.985550 0.000000
				CHANNELS 3 Zrotation Yrotation Xrotation
				JOINT RightFoot
				{
					OFFSET -2.568260 -7.056230 0.000000
					CHANNELS 3 Zrotation Yrotation Xrotation
					JOINT RightToeBase
					{
						OFFSET -0.164730 -0.452590 2.363150
						CHANNELS 3 Zrotation Yrotation Xrotation
						End Site
						{
							OFFSET 0.000000 0.000000 0.000000
						}
					}
				}
			}
		}
	}
	JOINT LowerBack
	{
		OFFSET 0.000000 0.000000 0.000000
		CHANNELS 3 Zrotation Yrotation Xrotation
		JOINT Spine
		{
			OFFSET 0.028270 2.035590 -0.193380
			CHANNELS 3 Zrotation Yrotation Xrotation
			JOINT Spine1
			{
				OFFSET 0.056720 2.048850 -0.042750
				CHANNELS 3 Zrotation Yrotation Xrotation
				JOINT Neck
				{
					OFFSET 0.000000 0.000000 0.000000
					CHANNELS 3 Zrotation Yrotation Xrotation
					JOINT Neck1
					{
						OFFSET -0.054170 1.746240 0.172020
						CHANNELS 3 Zrotation Yrotation Xrotation
						JOINT Head
						{
							OFFSET 0.104070 1.761360 -0.123970
							CHANNELS 3 Zrotation Yrotation Xrotation
							End Site
							{
								OFFSET 0.000000 0.000000 0.000000
							}
						}
					}
				}
				JOINT LeftShoulder
				{
					OFFSET 0.000000 0.000000 0.000000
					CHANNELS 3 Zrotation Yrotation Xrotation
					JOINT LeftArm
					{
						OFFSET 3.362410 1.200890 -0.311210
						CHANNELS 3 Zrotation Yrotation Xrotation
						JOINT LeftForeArm
						{
							OFFSET 4.983000 -0.000000 -0.000000
							CHANNELS 3 Zrotation Yrotation Xrotation
							JOINT LeftHand
							{
								OFFSET 3.483560 -0.000000 -0.000000
								CHANNELS 3 Zrotation Yrotation Xrotation
								JOINT LeftFingerBase
								{
									OFFSET 0.000000 0.000000 0.000000
									CHANNELS 3 Zrotation Yrotation Xrotation
									JOINT LeftHandIndex1
									{
										OFFSET 0.715260 -0.000000 -0.000000
										CHANNELS 3 Zrotation Yrotation Xrotation
										End Site
										{
											OFFSET 0.000000 0.000000 0.000000
										}
									}
								}
								JOINT LThumb
								{
									OFFSET 0.000000 0.000000 0.000000
									CHANNELS 3 Zrotation Yrotation Xrotation
									End Site
									{
										OFFSET 0.000000 0.000000 0.000000
									}
								}
							}
						}
					}
				}
				JOINT RightShoulder
				{
					OFFSET 0.000000 0.000000 0.000000
					CHANNELS 3 Zrotation Yrotation Xrotation
					JOINT RightArm
					{
						OFFSET -3.136600 1.374050 -0.404650
						CHANNELS 3 Zrotation Yrotation Xrotation
						JOINT RightForeArm
						{
							OFFSET -5.241900 -0.000000 -0.000000
							CHANNELS 3 Zrotation Yrotation Xrotation
							JOINT RightHand
							{
								OFFSET -3.444170 -0.000000 -0.000000
								CHANNELS 3 Zrotation Yrotation Xrotation
								JOINT RightFingerBase
								{
									OFFSET 0.000000 0.000000 0.000000
									CHANNELS 3 Zrotation Yrotation Xrotation
									JOINT RightHandIndex1
									{
										OFFSET -0.622530 -0.000000 -0.000000
										CHANNELS 3 Zrotation Yrotation Xrotation
										End Site
										{
											OFFSET 0.000000 0.000000 0.000000
										}
									}
								}
								JOINT RThumb
								{
									OFFSET 0.000000 0.000000 0.000000
									CHANNELS 3 Zrotation Yrotation Xrotation
									End Site
									{
										OFFSET 0.000000 0.000000 0.000000
									}
								}
							}
						}
					}
				}
			}
		}
	}
}
MOTION
Frames: 4
Frame Time: 0.008333
-2.274667 16.866049 -1.101436 4.808690 63.208210 16.716763 -9.053650 -0.089385 2.012923 -5.663774 -0.178801 -35.873963 -1.960999 0.341323 19.652571 0.568456 3.605058 2.452136 0.892800 0.000000 -32.519499 10.561947 -2.513689 1.015597 7.707630 6.115125 -4.898645 2.107030 -2.164213 32.452583 0.604695 8.478749 -12.440291 -0.540400 0.000000 -44.405500 -8.798022 0.944302 -4.540586 -1.972234 1.411666 -4.057387 -3.541892 1.209554 -1.116324 4.879048 -4.869803 -6.285320 -0.414112 -0.056957 0.416679 0.000000 0.000000 0.000000 -9.957942 13.994997 3.438371 -80.759262 46.646835 20.216872 -4.023892 -33.848785 -0.041626 -14.886736 13.325238 -1.781218 0.041445 -0.194849 -0.000000 0.000000 0.000000 0.000000 0.000000 0.000000 0.000000 -2.983236 0.127812 -2.077103 50.131334 61.706089 24.324692 0.313747 88.369639 -0.043528 -3.795608 7.313278 -0.260137 -0.035941 -0.592465 -0.000000 0.000000 0.000000 0.000000 0.000000 0.000000 0.000000 
-2.152758 16.828626 -1.073284 5.776050 62.930534 17.347759 -8.983714 -0.013639 1.810506 -6.530796 0.275952 -36.320635 -1.954974 0.511555 21.894449 0.610449 3.763445 1.853374 0.861700 0.000000 -32.275900 10.916575 -2.569585 0.772480 6.720008 4.768730 -6.388250 1.812537 -2.509744 36.068113 0.682442 8.899621 -11.326370 -0.498100 -0.000000 -49.414599 -9.390068 0.802028 -4.191064 -2.118705 1.314756 -4.020409 -3.689130 1.122561 -1.214542 5.217284 -4.841059 -6.211696 -0.519558 -0.065650 0.428868 0.000000 0.000000 0.000000 -9.888926 13.165601 3.441579 -80.429713 46.268149 21.591143 -3.947008 -34.124140 -0.040068 -14.792730 13.048446 -1.733537 0.045640 -0.192426 -0.000000 0.000000 0.000000 0.000000 0.000000 0.000000 0.000000 -2.194207 0.267281 -1.877204 51.531075 60.977834 25.447221 0.302869 88.384009 -0.042191 -3.819756 7.352520 -0.263751 -0.025212 -0.591570 -0.000000 0.000000 0.000000 0.000000 0.000000 0.000000 0.000000 
-2.033966 16.786975 -1.049862 6.630010 62.534677 17.849292 -8.919441 0.058929 1.564965 -7.420743 0.952003 -36.730233 -1.968279 0.676150 24.089186 0.639803 3.809837 1.034629 0.791700 -0.000000 -32.094400 11.270890 -2.609559 0.543857 5.693769 3.434582 -7.989832 1.494552 -2.842483 39.802802 0.758004 9.425092 -10.020664 -0.416100 -0.000000 -53.463100 -9.899015 0.688166 -3.801786 -2.252493 1.239510 -3.984503 -3.850981 1.058653 -1.342679 5.525852 -4.742579 -6.116041 -0.640047 -0.075837 0.446616 0.000000 0.000000 0.000000 -9.904416 12.308711 3.433190 -79.922585 45.768326 23.302149 -3.839795 -34.409728 -0.037612 -14.526838 12.599869 -1.644046 0.050580 -0.188363 -0.000000 0.000000 0.000000 0.000000 0.000000 0.000000 0.000000 -1.390287 0.508580 -1.674162 53.059116 60.085604 26.660442 0.289412 88.355635 -0.040932 -3.835249 7.422737 -0.267858 -0.014024 -0.590504 -0.000000 0.000000 0.000000 0.000000 0.000000 0.000000 0.000000 
-1.918147 16.740487 -1.031463 7.350184 62.019455 18.205553 -8.862125 0.129435 1.279384 -8.309980 1.828178 -37.106278 -1.998018 0.837780 26.243591 0.657959 3.753684 0.016220 0.689100 -0.000000 -31.992600 11.614762 -2.627222 0.335153 4.659182 2.178443 -9.669033 1.156374 -3.158355 43.616630 0.816067 9.974645 -8.606842 -0.285800 0.000000 -56.353300 -10.315058 0.601211 -3.378242 -2.370957 1.183825 -3.950101 -4.026532 1.015029 -1.498208 5.803247 -4.573821 -6.004006 -0.774582 -0.087338 0.468340 0.000000 0.000000 0.000000 -9.997122 11.460459 3.419910 -79.231073 45.128417 25.331979 -3.704242 -34.698469 -0.034483 -14.120789 12.076120 -1.531746 0.055958 -0.182946 -0.000000 0.000000 0.000000 0.000000 0.000000 0.000000 0.000000 -0.576793 0.852258 -1.474780 54.682219 59.032773 27.921454 0.275357 88.265401 -0.038978 -3.836260 7.517217 -0.271663 -0.002948 -0.589276 -0.000000 0.000000 0.000000 0.000000 0.000000 0.000000 0.000000 
